<?xml version="1.0" standalone="no"?>
<!DOCTYPE svg PUBLIC "-//W3C//DTD SVG 20010904//EN"
 "http://www.w3.org/TR/2001/REC-SVG-20010904/DTD/svg10.dtd">
<svg version="1.0" xmlns="http://www.w3.org/2000/svg"
 width="4725.000000pt" height="4725.000000pt" viewBox="0 0 4725.000000 4725.000000"
 preserveAspectRatio="xMidYMid meet">
<metadata>
Created by potrace 1.14, written by Peter Selinger 2001-2017
</metadata>
<g transform="translate(0.000000,4725.000000) scale(0.100000,-0.100000)"
fill="#000000" stroke="none">
<path d="M21260 44619 c-1166 -54 -2515 -303 -3650 -674 -1459 -477 -2823
-1191 -4115 -2155 -1006 -751 -2031 -1703 -2967 -2755 -2098 -2360 -4107
-5680 -5455 -9015 -296 -730 -703 -1854 -788 -2175 -14 -49 -43 -144 -66 -210
-28 -81 -132 -514 -325 -1353 l-285 -1233 -24 -377 c-35 -533 -53 -798 -65
-942 -5 -69 -12 -168 -15 -220 -3 -52 -14 -239 -25 -415 -66 -1071 -84 -1731
-60 -2161 12 -197 65 -904 80 -1054 5 -52 12 -135 15 -185 3 -49 12 -133 20
-185 8 -52 31 -241 50 -420 l36 -325 125 -475 c83 -311 168 -606 249 -855 68
-209 156 -481 195 -605 40 -124 126 -380 192 -570 112 -324 123 -348 163 -390
27 -29 81 -119 151 -250 382 -722 437 -821 521 -940 218 -306 490 -691 531
-750 79 -113 168 -216 481 -555 322 -349 468 -494 646 -640 61 -49 225 -184
365 -300 324 -268 439 -356 570 -435 58 -35 146 -90 195 -121 422 -269 521
-327 598 -348 68 -18 293 -104 857 -323 85 -34 218 -81 295 -105 195 -62 632
-164 934 -218 l255 -45 1471 0 c972 0 1499 4 1555 11 47 5 350 66 674 134 630
134 520 104 1676 444 410 120 467 141 925 336 686 293 1705 768 1865 869 96
61 281 156 850 434 244 119 436 233 580 343 663 505 1000 752 1890 1384 316
225 595 424 620 442 l44 34 22 -143 c122 -785 446 -1556 926 -2201 155 -208
274 -344 483 -553 326 -326 643 -571 1021 -791 205 -120 211 -119 39 2 -988
698 -1691 1785 -1919 2970 -39 204 -54 315 -81 615 -5 56 -8 472 -3 475 2 1
152 120 333 265 273 218 555 458 721 613 l32 29 -34 -129 c-87 -327 -118 -584
-119 -968 0 -377 30 -630 115 -960 401 -1561 1728 -2703 3335 -2870 188 -20
550 -22 735 -6 1309 120 2453 886 3071 2056 222 421 362 897 414 1405 21 204
16 667 -9 850 -90 651 -309 1218 -669 1730 -115 164 -222 293 -366 444 -219
228 -385 369 -631 535 -528 356 -1074 557 -1730 637 -202 25 -648 25 -850 0
-164 -20 -377 -57 -494 -87 -43 -11 -80 -19 -81 -17 -2 2 88 109 200 238 111
129 310 372 442 540 l239 305 139 3 c121 3 407 -11 500 -23 17 -2 84 -12 150
-20 683 -91 1386 -358 1980 -753 506 -336 971 -798 1314 -1306 309 -458 533
-957 676 -1506 40 -153 39 -117 -1 120 -79 466 -234 943 -438 1356 l-72 145
25 6 c420 97 753 225 1094 420 536 306 971 716 1310 1233 355 543 564 1152
618 1805 16 196 6 598 -20 790 -101 742 -387 1403 -855 1972 -104 126 -354
378 -476 479 -578 480 -1230 771 -1961 873 -289 41 -685 45 -965 11 -1142
-139 -2134 -746 -2761 -1690 -385 -578 -612 -1267 -640 -1938 l-6 -152 -168
-179 c-92 -98 -197 -204 -233 -236 -36 -32 -148 -161 -248 -287 -100 -125
-183 -227 -184 -225 -2 1 -12 56 -23 122 -90 533 -85 1125 14 1661 234 1264
986 2402 2055 3109 172 114 315 198 466 273 55 28 170 90 255 137 216 121 636
328 652 322 7 -3 19 -23 27 -46 7 -23 17 -41 21 -41 4 0 65 13 136 29 1120
258 2239 124 3252 -389 756 -382 1387 -946 1843 -1645 754 -1156 975 -2563
612 -3892 -24 -88 -59 -205 -78 -259 -19 -55 -33 -100 -32 -101 5 -5 115 252
166 387 155 410 253 832 302 1300 20 195 17 765 -5 970 -180 1641 -1096 3041
-2517 3850 -599 340 -1247 547 -1965 626 -223 25 -765 25 -985 1 -827 -92
-1550 -344 -2228 -778 -163 -104 -415 -291 -532 -395 -206 -182 -372 -346
-505 -499 -39 -44 -72 -82 -75 -85 -41 -41 -210 -265 -313 -415 -241 -352
-470 -813 -606 -1221 -322 -966 -343 -2012 -61 -2978 22 -75 40 -141 40 -147
0 -6 -40 -61 -88 -123 -49 -61 -99 -126 -112 -144 -31 -42 -54 -53 -233 -113
-532 -177 -1022 -434 -1464 -770 l-118 -89 -3 3440 -2 3440 -535 0 -535 0 0
-1570 c0 -1489 -1 -1570 -17 -1570 -19 0 -953 34 -1253 46 l-174 7 134 -144
c74 -80 292 -314 484 -522 l350 -377 238 0 238 0 0 -1680 0 -1680 219 -2 220
-3 -71 -85 c-389 -468 -708 -1041 -897 -1612 l-22 -67 -282 -228 c-611 -496
-943 -740 -2517 -1848 -366 -257 -719 -506 -784 -553 -65 -46 -199 -128 -297
-182 -811 -449 -1210 -661 -1534 -816 -198 -94 -386 -186 -419 -203 -49 -26
-667 -234 -1156 -389 -205 -65 -845 -261 -1310 -400 l-435 -131 -660 -31
c-921 -43 -966 -44 -1185 -31 l-195 11 -700 155 c-608 135 -716 162 -825 204
-802 314 -937 374 -1157 518 -328 213 -536 353 -713 477 -179 125 -215 156
-449 383 -228 222 -441 455 -602 658 -80 100 -545 729 -576 779 -39 61 -464
915 -513 1030 -23 55 -54 118 -68 140 -14 23 -25 50 -24 60 0 11 -21 96 -48
190 -26 94 -60 214 -74 266 -54 197 -119 431 -172 617 -30 106 -57 209 -59
228 -3 20 -17 59 -31 88 -19 37 -45 140 -90 357 -79 382 -97 523 -134 1040 -6
80 -13 165 -15 190 -58 536 -69 780 -62 1405 6 586 32 1060 87 1580 143 1350
544 2896 1318 5085 830 2348 1877 4552 3014 6345 634 1000 658 1036 752 1135
50 52 176 205 281 340 1436 1855 2771 3183 4265 4246 1922 1367 3769 2072
5748 2195 266 16 685 7 862 -20 353 -52 602 -127 885 -266 760 -371 1226
-1068 1357 -2025 20 -145 23 -206 22 -500 0 -354 -9 -480 -59 -827 -82 -567
-257 -1178 -506 -1770 -117 -279 -128 -308 -144 -383 -28 -134 -14 -274 39
-379 32 -62 105 -135 167 -166 92 -47 461 -145 1019 -270 277 -63 301 -67 395
-63 118 4 185 30 259 98 62 57 97 115 156 260 29 69 89 195 135 280 181 339
431 898 588 1315 357 952 508 1784 476 2625 -59 1551 -626 2668 -1724 3395
-185 123 -322 201 -540 306 -694 336 -1579 563 -2505 644 -390 34 -887 43
-1290 24z m-4220 -2179 c41 -18 79 -35 83 -40 8 -7 -34 -84 -80 -146 -17 -23
-77 -56 -254 -139 -1277 -600 -2477 -1519 -3899 -2986 -538 -555 -1195 -1253
-1439 -1529 -670 -757 -1293 -1608 -2193 -2995 -818 -1262 -878 -1355 -1050
-1655 -271 -472 -512 -951 -798 -1584 -39 -87 -79 -180 -89 -205 -10 -25 -53
-129 -96 -231 -110 -263 -262 -651 -409 -1042 -144 -383 -179 -464 -371 -849
l-137 -277 -61 24 c-33 13 -62 25 -64 27 -6 7 48 371 67 453 20 84 210 568
390 989 613 1438 1358 2907 2298 4530 680 1173 1507 2303 2607 3560 821 938
1156 1243 2465 2237 650 493 932 690 1850 1293 300 197 597 393 660 435 261
175 357 199 520 130z m40 -817 c-72 -290 -212 -376 -470 -288 -95 32 -111 42
-90 55 245 153 576 344 578 333 2 -7 -6 -52 -18 -100z m-2954 -381 c15 -9
-524 -537 -626 -613 -73 -54 -110 -77 -310 -189 -268 -151 -563 -394 -843
-694 -77 -83 -259 -289 -404 -458 -144 -169 -324 -376 -399 -460 -181 -204
-380 -441 -669 -798 -442 -546 -497 -610 -619 -718 l-116 -103 0 43 c0 338
646 1237 1591 2214 944 976 1838 1678 2254 1769 68 15 125 18 141 7z m533
-1238 c31 -39 46 -123 31 -170 -23 -73 -72 -154 -122 -200 -98 -92 -228 -124
-417 -104 -58 6 -109 14 -112 18 -7 9 459 462 486 473 11 4 41 8 67 8 39 1 50
-3 67 -25z m-2491 -2599 c49 -57 50 -60 34 -80 -50 -59 -276 -295 -283 -295
-12 0 -124 121 -124 134 0 13 306 307 316 303 4 -1 29 -29 57 -62z m-2501
-719 c4 -3 -167 -398 -176 -409 -9 -10 -161 54 -161 67 0 6 39 102 87 212 l86
202 81 -35 c44 -19 82 -35 83 -37z m-4023 -10037 c53 -106 70 -178 64 -281 -7
-117 -54 -207 -168 -318 -86 -84 -159 -138 -148 -109 3 8 45 195 93 416 72
327 91 400 102 391 7 -6 33 -50 57 -99z m25630 -2036 c3 -10 33 -126 67 -258
34 -132 63 -242 65 -244 1 -1 60 -5 131 -8 396 -13 575 -22 580 -26 3 -3 2
-105 -2 -227 l-8 -222 -46 6 c-349 52 -575 45 -785 -21 -210 -66 -381 -196
-467 -356 -32 -59 -34 -67 -34 -167 0 -144 22 -199 119 -296 121 -120 258
-180 526 -229 416 -75 737 -192 998 -364 182 -120 347 -308 417 -476 28 -66
29 -79 33 -239 2 -93 -2 -214 -8 -270 -37 -315 -165 -571 -362 -722 -70 -54
-202 -119 -275 -135 -51 -12 -54 -14 -48 -38 4 -14 42 -151 86 -305 44 -153
78 -280 76 -282 -2 -3 -96 -20 -208 -39 -112 -20 -210 -36 -218 -38 -9 -1 -34
69 -85 243 -40 135 -76 258 -80 273 -5 22 -11 27 -25 22 -89 -28 -243 -31
-443 -10 -150 16 -440 64 -459 76 -10 6 -6 64 16 258 16 138 32 251 37 251 5
0 36 -9 69 -20 117 -40 246 -52 484 -47 348 8 526 43 660 132 193 129 303 346
293 578 -3 76 -9 103 -34 157 -94 200 -331 331 -649 360 -429 38 -758 154
-1043 368 -137 103 -289 268 -342 372 -10 19 -25 69 -33 111 -76 367 29 703
304 978 78 78 200 174 276 216 l49 28 -36 289 c-25 197 -33 291 -26 294 15 5
343 42 388 43 27 1 38 -4 42 -16z m-6944 -3528 l0 -135 -135 0 -135 0 0 128
c0 71 3 132 7 135 3 4 64 7 135 7 l128 0 0 -135z m3636 5 c14 -51 23 -98 20
-106 -7 -19 -66 -18 -95 2 -20 14 -22 22 -17 58 8 45 53 152 61 144 3 -3 17
-47 31 -98z m-3636 -1095 l0 -135 -135 0 -135 0 0 128 c0 71 3 132 7 135 3 4
64 7 135 7 l128 0 0 -135z m2555 -32 c-2 -10 -9 -47 -15 -83 -26 -146 -82
-258 -139 -278 -36 -13 -99 2 -108 24 -3 9 2 45 12 80 24 89 86 171 172 229
75 50 83 53 78 28z m-485 -480 c0 -5 -9 -44 -19 -88 -56 -229 -154 -321 -291
-274 -30 11 -32 14 -27 50 14 102 103 208 233 277 77 41 104 49 104 35z m-416
-652 c4 -5 -56 -65 -131 -134 -76 -69 -164 -155 -196 -191 -32 -37 -75 -75
-96 -85 -21 -11 -43 -27 -51 -36 -7 -8 -35 -34 -63 -57 l-49 -42 7 51 6 50
-40 7 c-22 3 -52 11 -66 18 -22 10 -25 16 -19 42 12 55 52 123 102 171 44 43
84 71 229 160 23 14 70 32 105 40 72 15 254 20 262 6z m-1211 -1097 c-51 -151
-179 -238 -324 -220 -76 10 -85 17 -69 55 28 69 142 141 292 185 120 36 120
36 101 -20z m-543 -389 c-68 -196 -187 -311 -337 -323 -35 -2 -63 -1 -63 4 0
5 24 70 53 144 l52 135 56 22 c66 26 217 72 241 72 16 1 15 -3 -2 -54z m2381
38 c31 -36 368 -343 378 -343 6 0 146 81 312 180 227 136 305 178 311 168 5
-7 26 -42 47 -78 22 -36 71 -116 110 -179 39 -63 71 -117 71 -121 0 -3 -17
-12 -37 -19 -57 -20 -260 -123 -328 -166 -341 -216 -525 -493 -525 -789 0 -80
4 -99 29 -152 52 -110 136 -185 252 -225 50 -17 87 -21 169 -21 134 0 237 24
407 95 174 74 343 132 498 172 236 62 297 69 545 69 212 0 231 -2 324 -27 123
-33 262 -100 341 -164 78 -63 165 -190 254 -368 111 -224 144 -349 143 -550 0
-98 -5 -149 -20 -206 -32 -118 -98 -241 -181 -332 l-36 -40 60 -53 c33 -30
140 -123 237 -206 97 -84 177 -156 177 -159 1 -3 -73 -74 -163 -157 l-164
-151 -188 162 c-103 89 -200 172 -215 185 l-28 23 -46 -46 c-64 -65 -206 -155
-370 -234 -151 -73 -393 -176 -399 -170 -8 8 -226 449 -226 456 0 5 33 16 73
25 198 48 624 324 802 520 63 70 126 190 150 283 49 194 -17 458 -149 590
-179 179 -479 179 -820 1 -407 -213 -780 -291 -1159 -241 -199 26 -376 88
-456 160 -101 91 -213 255 -266 390 -104 262 -82 618 56 914 21 46 39 88 39
93 0 5 -81 105 -180 223 -99 118 -181 218 -182 224 -3 9 319 280 333 281 4 0
13 -7 20 -17z m-3517 -847 c-17 -134 -18 -136 -43 -136 -39 0 -141 32 -141 44
1 21 40 98 66 130 29 33 124 109 131 103 2 -2 -4 -66 -13 -141z m-28 -202 c-4
-9 -9 -15 -11 -12 -3 3 -3 13 1 22 4 9 9 15 11 12 3 -3 3 -13 -1 -22z"/>
<path d="M40395 37899 c-2 -8 -20 -68 -39 -134 -191 -660 -598 -1559 -1048
-2312 -117 -196 -266 -434 -277 -443 -6 -5 -219 -313 -379 -550 -86 -125 -215
-296 -391 -515 -621 -775 -1357 -1508 -2146 -2140 l-160 -128 -357 -421 c-197
-232 -358 -424 -358 -428 0 -5 145 -128 782 -666 15 -12 27 -5 115 64 171 136
741 610 773 644 3 3 37 32 75 65 169 144 636 568 810 736 153 147 197 188 287
266 48 41 86 79 85 83 -1 5 52 64 118 132 66 67 161 166 210 218 49 52 119
127 155 165 339 360 799 920 1050 1278 55 78 70 98 252 338 248 328 511 713
703 1034 452 755 670 1347 652 1780 l-5 129 -33 30 c-19 16 -75 67 -125 113
-50 46 -100 91 -111 101 -11 9 -63 56 -115 105 -53 48 -104 95 -115 105 -19
16 -136 122 -278 252 -127 116 -124 114 -130 99z"/>
<path d="M38538 36894 c-611 -110 -1573 -825 -2762 -2052 -536 -553 -664 -703
-1071 -1247 -928 -1241 -1371 -2055 -1247 -2293 30 -59 72 -77 173 -76 l86 1
214 106 c1048 516 2231 1433 3224 2497 480 515 930 1069 1327 1636 201 286
428 795 482 1083 19 99 20 262 2 311 -11 29 -18 34 -37 32 -48 -7 -85 -5 -138
6 -69 15 -156 14 -253 -4z"/>
<path d="M23503 35733 l-53 -4 0 -1357 1 -1357 492 -473 492 -473 3 1194 2
1194 107 6 c154 10 363 8 363 -2 0 -13 231 -26 239 -13 4 7 47 6 136 -4 672
-73 1221 -283 1626 -623 399 -334 638 -787 731 -1386 29 -191 37 -607 13 -765
-22 -147 -82 -392 -100 -406 -18 -14 -75 -167 -75 -202 0 -81 -198 -432 -358
-637 -77 -98 -291 -309 -387 -382 -264 -199 -554 -345 -871 -436 -144 -42
-194 -52 -194 -40 0 5 -39 1 -87 -9 -49 -10 -98 -18 -110 -18 -12 0 -28 -7
-37 -15 -26 -26 -240 -46 -568 -52 -168 -3 -318 -3 -332 1 l-26 6 0 728 0 729
-25 23 c-14 13 -25 29 -25 36 0 17 -234 218 -238 205 -2 -6 -176 138 -388 320
l-384 329 0 -1770 0 -1770 23 -4 c12 -3 58 -8 102 -11 44 -3 82 -11 86 -16 8
-14 239 -25 239 -11 0 7 89 10 278 11 441 1 792 29 1197 97 1293 216 2249 759
2804 1594 331 498 510 1064 567 1790 12 150 21 218 31 226 20 17 19 307 -2
324 -10 8 -15 30 -15 64 0 86 -29 313 -61 471 -175 881 -646 1595 -1374 2081
-66 44 -139 91 -162 103 -23 13 -43 31 -46 40 -5 19 -222 135 -237 126 -6 -3
-54 14 -108 39 -556 254 -1212 410 -2032 482 -177 15 -1100 28 -1237 17z
m3508 -640 l69 -37 0 -63 0 -63 -80 0 -80 0 0 100 c0 68 4 100 11 100 7 0 43
-17 80 -37z m-1901 -513 l0 -100 -27 0 c-16 0 -52 3 -80 6 l-53 7 0 93 0 94
80 0 80 0 0 -100z m-1450 -980 l0 -120 -80 0 -80 0 0 120 0 120 80 0 80 0 0
-120z m4410 -400 l0 -120 -75 0 -75 0 0 120 0 120 75 0 75 0 0 -120z m-3690
-85 l0 -115 -80 0 -80 0 0 115 0 115 80 0 80 0 0 -115z m4370 -965 l0 -120
-65 0 -65 0 0 120 0 120 65 0 65 0 0 -120z m-322 -497 l-3 -118 -77 -3 -78 -3
0 121 0 120 80 0 81 0 -3 -117z m-748 -553 l0 -120 -80 0 -80 0 0 55 c0 30 8
76 18 102 11 26 22 56 25 66 5 13 18 17 62 17 l55 0 0 -120z m-3335 -42 c57
-49 74 -69 74 -90 l1 -28 -80 0 -80 0 0 90 c0 50 3 90 6 90 3 0 39 -28 79 -62z
m3335 -1113 l0 -115 -80 0 -80 0 0 115 0 115 80 0 80 0 0 -115z m-2050 -525
l0 -110 -80 0 -80 0 0 94 0 94 73 15 c39 8 75 15 80 16 4 0 7 -48 7 -109z
m1280 -50 l0 -120 -80 0 -80 0 0 113 c0 63 3 117 7 120 3 4 39 7 80 7 l73 0 0
-120z m-1610 -55 l0 -115 -75 0 -75 0 0 115 0 115 75 0 75 0 0 -115z m-1540
-140 l0 -115 -80 0 -80 0 0 115 0 115 80 0 80 0 0 -115z m100 -790 l0 -85 -49
0 c-27 0 -63 3 -80 6 l-31 7 0 78 0 79 80 0 80 0 0 -85z"/>
<path d="M12125 35720 c-198 -12 -541 -40 -584 -49 l-34 -6 486 -515 485 -515
223 1 c267 1 601 -21 792 -52 l37 -7 0 52 0 51 105 0 105 0 0 -70 0 -69 38
-10 c20 -5 74 -19 118 -30 351 -89 652 -262 789 -455 90 -127 120 -214 138
-391 19 -191 15 -355 -12 -449 -47 -168 -154 -331 -291 -441 -38 -32 -70 -65
-70 -74 0 -9 -7 -90 -15 -181 -8 -91 -15 -175 -15 -187 0 -22 -3 -23 -103 -23
l-104 0 23 143 c13 78 24 145 24 149 0 4 -25 -4 -57 -17 -91 -41 -266 -93
-402 -120 -218 -43 -358 -56 -698 -62 l-323 -6 6 -526 c3 -289 7 -532 10 -538
2 -10 50 -13 191 -13 l188 -1 831 -1452 830 -1452 647 -3 646 -2 -871 1522
c-479 838 -873 1530 -875 1538 -3 10 12 21 44 34 142 56 403 216 573 353 115
92 280 257 372 373 254 319 415 689 484 1115 24 153 31 545 10 662 -35 201
-120 409 -244 594 -296 443 -780 759 -1453 949 -78 22 -143 40 -145 40 -2 0
-4 -18 -4 -40 l0 -40 -100 0 -99 0 -3 62 -3 63 -40 7 c-131 23 -404 60 -555
74 -205 18 -865 27 -1095 14z m275 -355 l0 -155 -100 0 -100 0 0 155 0 155
100 0 100 0 0 -155z m440 75 l0 -80 -100 0 -100 0 0 80 0 80 100 0 100 0 0
-80z m1140 -470 l0 -80 -105 0 -105 0 0 80 0 80 105 0 105 0 0 -80z m980 -515
l0 -175 -150 0 -150 0 0 175 0 175 150 0 150 0 0 -175z m800 -930 l0 -155 -95
0 -95 0 0 155 0 155 95 0 95 0 0 -155z m-30 -390 l0 -115 -110 0 -110 0 0 108
c0 60 3 112 7 115 3 4 53 7 110 7 l103 0 0 -115z m-1546 -1747 l96 -111 -49
-28 c-27 -16 -54 -30 -59 -31 -6 -2 -49 51 -96 117 l-86 120 43 22 c23 12 45
22 49 23 3 0 50 -50 102 -112z m184 -975 c34 -50 47 -97 46 -164 -2 -89 -24
-149 -90 -241 l-55 -78 -79 0 -80 0 0 255 0 255 119 0 c119 0 120 0 139 -27z
m16 -633 c14 -22 26 -44 26 -49 0 -8 -133 -236 -145 -249 -5 -6 -95 125 -95
138 0 14 167 200 180 200 4 0 19 -18 34 -40z"/>
<path d="M17520 33543 l0 -2188 490 -458 490 -457 0 585 0 585 695 0 695 0 0
495 0 495 -660 0 -660 0 0 1015 0 1015 1795 0 c987 0 1795 3 1794 8 0 4 -78
246 -173 537 l-173 530 -869 6 c-478 4 -1444 10 -2146 13 l-1278 8 0 -2189z
m2990 1377 l0 -130 -110 0 -110 0 0 130 0 130 110 0 110 0 0 -130z m-840
-2610 l0 -130 -110 0 -110 0 0 130 0 130 110 0 110 0 0 -130z m-1400 -50 l0
-130 -110 0 -110 0 0 130 0 130 110 0 110 0 0 -130z"/>
<path d="M29670 34387 l0 -1334 373 -364 c204 -200 438 -429 520 -508 l147
-145 0 1842 0 1842 -520 0 -520 0 0 -1333z m170 -887 l0 -90 -70 0 -70 0 0 90
0 90 70 0 70 0 0 -90z"/>
<path d="M11380 31471 l0 -3161 550 0 550 0 0 2658 0 2658 -511 469 c-282 259
-529 485 -550 503 l-39 34 0 -3161z"/>
<path d="M40391 31926 l-564 -72 -45 -49 c-124 -137 -244 -377 -331 -660 -104
-341 -173 -775 -213 -1335 -21 -305 -14 -1645 12 -2105 73 -1297 355 -2801
845 -4505 159 -554 408 -1328 429 -1336 15 -6 1124 91 1132 98 3 3 -29 120
-70 259 -171 575 -369 1344 -515 2004 -44 198 -100 436 -125 528 -26 92 -64
248 -86 346 -22 99 -44 190 -50 203 -24 57 -139 655 -194 1008 -157 1017 -195
2087 -111 3105 72 855 237 1718 456 2378 33 100 63 188 65 195 8 19 -23 16
-635 -62z"/>
<path d="M29670 30141 l0 -1841 520 0 520 0 -1 1338 -1 1337 -454 445 c-250
245 -484 471 -519 504 l-65 58 0 -1841z m180 1179 l0 -80 -80 0 -80 0 0 73 c0
41 3 77 7 80 3 4 39 7 80 7 l73 0 0 -80z m670 -450 l0 -60 -55 0 -55 0 0 60 0
60 55 0 55 0 0 -60z m-530 -530 l0 -80 -80 0 -80 0 0 80 0 80 80 0 80 0 0 -80z
m520 -565 l0 -55 -60 0 -60 0 0 55 0 55 60 0 60 0 0 -55z m140 -1110 l0 -55
-55 0 -55 0 0 55 0 55 55 0 55 0 0 -55z"/>
<path d="M30800 31495 l0 -95 100 0 100 0 0 95 0 95 -100 0 -100 0 0 -95z
m160 0 l0 -55 -60 0 -60 0 0 55 0 55 60 0 60 0 0 -55z"/>
<path d="M33845 30304 c-82 -47 -322 -170 -532 -275 -211 -105 -383 -195 -383
-199 0 -23 44 -219 71 -313 83 -296 214 -492 431 -650 98 -71 188 -92 304 -72
243 42 688 195 874 300 79 45 331 219 540 374 280 207 500 373 500 378 0 3
-10 -2 -23 -10 -69 -45 -236 -132 -338 -176 -282 -121 -575 -178 -802 -156
-67 6 -83 11 -113 37 -96 85 -225 369 -329 728 -18 63 -37 115 -41 116 -5 1
-76 -36 -159 -82z"/>
<path d="M41614 30327 c-171 -100 -309 -464 -404 -1072 -20 -126 -22 -175 -21
-500 4 -1762 325 -3501 919 -4985 180 -450 459 -1010 550 -1103 42 -44 124
-87 163 -87 95 0 175 106 233 306 48 162 94 464 111 719 3 50 8 106 10 126 10
94 20 511 20 869 0 658 -23 1271 -55 1490 -6 36 -24 164 -40 285 -146 1064
-332 1941 -551 2598 -188 564 -425 997 -647 1182 -66 55 -174 115 -206 115 -9
0 -26 16 -37 35 -12 19 -22 35 -22 35 -1 -1 -11 -6 -23 -13z"/>
<path d="M17520 29316 l0 -1006 2349 0 2348 0 -195 500 -196 500 -1641 0
-1641 0 -35 36 c-18 20 -249 247 -511 506 l-478 470 0 -1006z"/>
<path d="M16125 26764 c-328 -50 -622 -136 -860 -254 -155 -76 -249 -135 -355
-224 -69 -58 -182 -187 -202 -232 -10 -21 21 -59 326 -407 l337 -385 97 61
c144 91 315 172 464 222 196 65 277 79 453 79 193 1 291 -24 477 -122 4 -2 9
36 10 85 l3 88 115 0 115 0 3 -182 2 -183 -29 0 -29 0 56 -82 c120 -179 207
-405 219 -565 l6 -83 568 0 569 0 -6 48 c-43 380 -130 684 -281 986 -325 649
-873 1035 -1605 1130 -119 16 -399 28 -453 20z"/>
<path d="M19520 22945 l0 -3745 505 0 505 0 0 1680 0 1680 910 2 909 3 -501
518 -502 517 -408 0 -408 0 0 1545 0 1545 -505 0 -505 0 0 -3745z"/>
<path d="M10507 26538 c-3 -7 -489 -1097 -1081 -2421 l-1075 -2408 208 -242
c354 -412 503 -582 510 -585 7 -2 216 417 1022 2056 255 518 466 942 469 942
3 0 470 -1029 1038 -2287 l1031 -2288 496 -3 c272 -1 495 1 495 5 0 11 -3091
7226 -3100 7236 -4 5 -10 2 -13 -5z"/>
<path d="M14246 25252 c-11 -18 -66 -309 -82 -437 -19 -153 -21 -467 -5 -600
41 -325 147 -625 310 -870 251 -380 637 -683 1104 -870 l118 -47 257 -2 c200
-2 276 -6 342 -20 103 -21 278 -77 366 -116 l64 -29 0 90 0 90 108 -3 107 -3
0 -120 0 -120 -43 -5 -43 -5 76 -54 c86 -62 261 -240 318 -323 42 -62 59 -115
82 -253 74 -449 -120 -858 -543 -1144 -142 -96 -241 -121 -478 -121 -494 0
-857 272 -1023 767 -17 51 -36 122 -42 158 l-12 65 -44 0 c-24 0 -43 5 -43 10
0 6 -50 10 -129 10 -76 0 -132 -4 -136 -10 -4 -6 -144 -10 -386 -10 l-380 0 6
-67 c26 -297 90 -542 196 -755 16 -32 29 -68 29 -81 0 -28 109 -207 126 -207
6 0 44 -44 85 -97 153 -201 418 -446 646 -596 140 -92 182 -111 348 -156 769
-211 1422 -148 1930 186 307 202 545 483 734 863 108 217 172 397 211 593 11
55 25 104 31 107 5 4 15 49 21 101 13 116 -11 471 -43 635 -133 692 -687 1271
-1534 1603 -215 85 -304 107 -480 120 -504 38 -879 219 -1082 524 -57 84 -109
203 -126 285 -10 46 -20 63 -57 97 -25 23 -223 205 -440 405 -217 200 -409
376 -426 392 -18 17 -34 25 -38 20z m422 -774 l-3 -123 -107 -3 -108 -3 0 126
0 125 110 0 111 0 -3 -122z m110 -690 l3 -138 -141 0 -140 0 0 140 0 141 138
-3 137 -3 3 -137z m1802 -408 l0 -120 -110 0 -110 0 0 120 0 120 110 0 110 0
0 -120z m-1260 -50 l0 -141 -137 3 -138 3 -3 138 -3 137 141 0 140 0 0 -140z
m810 -470 l0 -141 -137 3 -138 3 -3 138 -3 137 141 0 140 0 0 -140z m1430 0
l0 -100 -95 0 -95 0 0 100 0 100 95 0 95 0 0 -100z m876 -1637 c-4 -54 -11
-102 -15 -106 -5 -4 -35 -7 -67 -5 l-59 3 -3 89 c-2 49 -1 95 2 103 4 9 27 13
77 13 l72 0 -7 -97z m-3341 -68 l0 -100 -87 -3 -88 -3 0 106 0 106 88 -3 87
-3 0 -100z m-535 -841 l0 -105 -42 3 c-42 3 -44 5 -90 82 -27 44 -48 90 -48
103 0 22 2 23 90 23 l90 0 0 -106z m710 -489 l0 -106 -87 3 -88 3 -3 103 -3
102 91 0 90 0 0 -105z"/>
<path d="M41680 22656 c0 -4 37 -118 81 -254 185 -561 361 -959 551 -1243 43
-65 82 -120 87 -123 4 -3 23 10 41 30 34 34 34 34 17 63 -158 268 -519 972
-677 1321 -93 205 -100 219 -100 206z"/>
<path d="M7697 20008 c-180 -419 -325 -764 -322 -767 10 -9 1096 -64 1105 -55
11 11 370 894 370 910 0 12 -803 674 -817 674 -5 0 -156 -343 -336 -762z"/>
</g>
</svg>
